inDegrees=no
num_controls=7
num_derivatives=13
num_iterations=135
num_multipliers=7
num_parameters=0
num_slacks=7
num_states=26
objective=5.873578
objective_accelerations=0.820336
objective_balance=0.051647
objective_effort=0.284912
objective_height=4.649745
objective_ligament=0.066939
solver_duration=1505.787870
status=Solve_Succeeded
success=true
DataType=double
version=3
OpenSimVersion=4.4-2022-07-23-0e9fedc
endheader
time	/jointset/ground_pelvis/pelvis_tilt/value	/jointset/ground_pelvis/pelvis_tx/value	/jointset/ground_pelvis/pelvis_ty/value	/jointset/hip_l/hip_flexion_l/value	/jointset/hip_l/hip_adduction_l/value	/jointset/hip_l/hip_rotation_l/value	/jointset/back/lumbar_extension/value	/jointset/patellofemoral_l/patellar_flexion_l/value	/jointset/knee_l/knee_flexion_l/value	/jointset/knee_l/knee_adduction_l/value	/jointset/knee_l/knee_rotation_l/value	/jointset/ankle_l/ankle_angle_l/value	/jointset/subtalar_l/subtalar_angle_l/value	/jointset/ground_pelvis/pelvis_tilt/speed	/jointset/ground_pelvis/pelvis_tx/speed	/jointset/ground_pelvis/pelvis_ty/speed	/jointset/hip_l/hip_flexion_l/speed	/jointset/hip_l/hip_adduction_l/speed	/jointset/hip_l/hip_rotation_l/speed	/jointset/back/lumbar_extension/speed	/jointset/patellofemoral_l/patellar_flexion_l/speed	/jointset/knee_l/knee_flexion_l/speed	/jointset/knee_l/knee_adduction_l/speed	/jointset/knee_l/knee_rotation_l/speed	/jointset/ankle_l/ankle_angle_l/speed	/jointset/subtalar_l/subtalar_angle_l/speed	/forceset/tau_hip_flexion_l	/forceset/tau_hip_adduction_l	/forceset/tau_hip_rotation_l	/forceset/tau_knee_flexion_l	/forceset/tau_ankle_angle_l	/forceset/tau_subtalar_angle_l	/forceset/tau_lumbar_extension	lambda_cid13_p0	lambda_cid13_p1	lambda_cid13_p2	lambda_cid13_p3	lambda_cid13_p4	lambda_cid13_p5	lambda_cid14_p0	/jointset/ground_pelvis/pelvis_tilt/accel	/jointset/ground_pelvis/pelvis_tx/accel	/jointset/ground_pelvis/pelvis_ty/accel	/jointset/hip_l/hip_flexion_l/accel	/jointset/hip_l/hip_adduction_l/accel	/jointset/hip_l/hip_rotation_l/accel	/jointset/back/lumbar_extension/accel	/jointset/patellofemoral_l/patellar_flexion_l/accel	/jointset/knee_l/knee_flexion_l/accel	/jointset/knee_l/knee_adduction_l/accel	/jointset/knee_l/knee_rotation_l/accel	/jointset/ankle_l/ankle_angle_l/accel	/jointset/subtalar_l/subtalar_angle_l/accel	gamma_cid13_p0	gamma_cid13_p1	gamma_cid13_p2	gamma_cid13_p3	gamma_cid13_p4	gamma_cid13_p5	gamma_cid14_p0
0	-0.04124613121308555	0.06967506544833352	0.8960204773628293	0.1955292361009247	-0.3212720297525755	-0.4979551262559867	-0.137903700187828	0.07015350928395156	0.07015350928391206	-0.1745328185161049	-0.1316948950251561	-0.06701017130107029	0.004774202126707411	0	0	0	0	0	0	0	0	0	0	0	0	0	0.1207745058880774	-0.1251128867946865	-0.03851168289809566	-0.2776060399510216	0.2640246776459053	-0.01950731769766695	-0.0598113164991667	49.24299381810124	-2.969654632322782	3.358178292580746	-24.52247235039333	-514.0005789939324	-81.93736194365374	-40.29213319606043	-4.038829547986996	-1.284430916680254	-0.9672364467883281	12.17862326968535	-2.392077483504907	3.847860202181347	-2.774906807624362	11.70416473153503	11.70416473153371	1.075983156314874	-0.7856506488706425	3.850259733347996	-0.5256357532465609	-4.962369901535583e-08	1.673879160395595e-07	1.738374569715981e-07	2.727541518394437e-08	-3.601527495034592e-08	-8.835312669433861e-08	-6.272404732395169e-09
0.01	-0.04143792993937417	0.06961184066102834	0.8959735831627351	0.1961173824930182	-0.3213895409941781	-0.4977609708647611	-0.1380484480348464	0.07072254638007408	0.07072254638043765	-0.174482442856581	-0.1317264388484547	-0.06682344800597993	0.004746998836146698	-0.03817566090584221	-0.01258551977804074	-0.009349387062439167	0.1171021306482337	-0.02337619976902845	0.03867349548952007	-0.02868816797245951	0.1132977765398154	0.1132977765398047	0.01005596372839223	-0.006261836463077051	0.03718446288252469	-0.005391443721973154	0.1158440380675791	-0.1274336120420738	-0.03742213522063382	-0.2707147359271784	0.2520578531495405	-0.01242172256703425	-0.05572216639441775	45.62807362124238	-5.342466167805374	3.654779421001586	-22.99594530739779	-514.9415249664877	-87.11051812022045	-40.3033285666821	-3.679337699179508	-1.236691403820001	-0.9143790956101665	11.39691894470947	-2.291531954902448	3.853438194263067	-2.876561575541048	11.06613896070715	11.06613896070666	0.9675782088043875	-0.5393948457989428	3.628510725657839	-0.5385627035870225	-1.00442418410269e-07	2.179400860731961e-07	2.774774893243931e-07	7.573188126139897e-08	-3.004498756963794e-07	-1.635510932231846e-07	-1.086744643452816e-08
0.02	-0.04200596594221048	0.06942454489684848	0.8958340772400898	0.1978607323879743	-0.3217370423797106	-0.4971848117241602	-0.1384722355182837	0.0724092722111473	0.07240927221114001	-0.1743320725130632	-0.1318191899757049	-0.06626968585006969	0.004667348303983918	-0.07524745530332855	-0.02481419537493943	-0.01852234451025859	0.2310407005891548	-0.04599802879002377	0.0764007498561035	-0.05580792728411672	0.2235377468997238	0.2235377468997206	0.0199989365648546	-0.01224146095712485	0.07340777216315542	-0.01048944832054445	0.1109135702461866	-0.1297543372897189	-0.03633258754797612	-0.2638234319032008	0.2400910286529092	-0.005336127436771897	-0.0516330162899991	42.08730628282844	-7.729670723236236	3.955287758269659	-21.69628968749413	-514.823602865319	-92.08789403184831	-40.33623277300422	-3.818056246314667	-1.213062080452913	-0.9319505238643924	11.54591112822297	-2.241203333898457	3.658611977593999	-2.461225075463247	11.09260349555382	11.09260349555612	1.053384977928578	-0.729208255065069	3.658029012967966	-0.4669479285670363	-1.512611378051822e-07	2.684922561068327e-07	3.811175216771881e-07	1.241883473388536e-07	-5.64884476442413e-07	-2.387490597520306e-07	-1.546248813666116e-08
0.03	-0.04293966442590763	0.06911658932069367	0.8956033795011166	0.2007288508834667	-0.3223068730221679	-0.4962367337541866	-0.1391590336182319	0.07518378165440306	0.07518378165426287	-0.1740827413612271	-0.1319711597575348	-0.06535848645756388	0.004538298559515012	-0.1112941272861841	-0.03673075263493041	-0.02761296909355563	0.342067884759815	-0.06782974527812144	0.1130553130643252	-0.08131842940236224	0.3308483652323076	0.3308483652323103	0.02983222151071065	-0.01810423505251108	0.1086469847306241	-0.01527384517818192	0.1052341086952443	-0.1223087497397223	-0.03513370295392645	-0.2563508770550171	0.2313016737431137	-0.00651911603673935	-0.04711352637634718	39.24578872872938	-6.909358604696393	4.042661939670467	-19.8636867418084	-514.7130888863518	-89.70146417166865	-40.38938099267959	-3.46827364851378	-1.174002435178207	-0.8970973422411582	10.8038273850145	-2.133483568940191	3.644901767826423	-2.560973282568848	10.47292763727253	10.47292763727165	0.9431323876775254	-0.5075301372654125	3.429096152624243	-0.4772723533992969	-1.857615703322359e-07	2.866818746278875e-07	4.57791715108818e-07	1.552241688020379e-07	-7.543733848974364e-07	-2.978917325133984e-07	-1.988999519039433e-08
